<?xml version="1.0" encoding="utf-8"?>
<!-- Generator: Adobe Illustrator 26.0.0, SVG Export Plug-In . SVG Version: 6.00 Build 0)  -->
<svg version="1.1" id="Layer_1" xmlns="http://www.w3.org/2000/svg" xmlns:xlink="http://www.w3.org/1999/xlink" x="0px" y="0px"
	 viewBox="0 0 72 72" style="enable-background:new 0 0 72 72;" xml:space="preserve">
<g>
	<path style="fill:#FFFFFF;" d="M50.71,12.61c0,1.31,0.02,2.57,0,3.84c-0.1,4.87-2.16,6.93-7.13,6.98
		c-5.6,0.05-11.21,0.08-16.8-0.03c-3.78-0.08-5.8-2.03-6.16-5.68c-0.17-1.71-0.2-3.44-0.29-5.17c-4.4,0.45-7.22,2.38-7.69,6.17
		c-0.56,4.57-0.35,9.24-0.35,13.86c0,0.57,0.59,1.3,1.12,1.68c5.2,3.67,6.62,8.82,6.35,14.74c-0.13,2.77-0.02,5.55-0.02,8.18
		c11.03,0,21.31,0,31.81,0c0-3.4,0.1-6.49-0.02-9.56c-0.21-5.21,1.49-9.52,5.67-12.9c0.73-0.59,1.37-1.73,1.4-2.64
		c0.14-4.04,0.23-8.09-0.03-12.12C58.27,15.64,55.45,13.06,50.71,12.61z M53.11,58.7c-11.95,0-23.43,0-35.08,0
		c0-4.37,0.03-8.41-0.01-12.44c-0.04-4.48-1.9-8.12-5.77-10.52c-1.17-0.73-3.22-1.21-4.3-0.68C6.89,35.58,6,37.5,5.97,38.82
		c-0.16,8.92-0.15,17.84-0.03,26.76c0.05,3.66,1.94,5.4,5.79,5.41c15.96,0.06,31.93,0.06,47.89,0c3.77-0.02,5.71-1.86,5.75-5.5
		c0.11-8.92,0.12-17.84-0.06-26.76c-0.03-1.31-1.01-3.21-2.09-3.71c-1.1-0.5-3.13,0.01-4.31,0.75c-3.97,2.51-5.76,6.32-5.79,10.91
		C53.09,50.6,53.11,54.51,53.11,58.7z M35.55,21.88c2.79,0,5.59,0.02,8.38-0.01c3.24-0.03,4.95-1.62,4.96-4.82
		c0.01-3.79,0.01-7.58,0-11.38C48.87,2.66,47.35,1,44.22,0.99c-5.71-0.04-11.41-0.03-17.12,0C23.78,1,22.27,2.78,22.27,5.92
		c0,3.67-0.07,7.35,0.02,11.02c0.08,3.4,1.65,4.84,5.24,4.93C30.2,21.93,32.88,21.88,35.55,21.88z"/>
	<path d="M50.71,12.61c4.74,0.45,7.56,3.02,7.84,7.34c0.26,4.02,0.17,8.08,0.03,12.12c-0.03,0.91-0.66,2.05-1.4,2.64
		c-4.18,3.38-5.88,7.69-5.67,12.9c0.12,3.08,0.02,6.16,0.02,9.56c-10.51,0-20.78,0-31.81,0c0-2.63-0.1-5.41,0.02-8.18
		c0.27-5.92-1.16-11.07-6.35-14.74c-0.53-0.37-1.12-1.11-1.12-1.68c0.01-4.62-0.21-9.29,0.35-13.86c0.46-3.78,3.28-5.71,7.69-6.17
		c0.09,1.73,0.12,3.46,0.29,5.17c0.37,3.66,2.38,5.61,6.16,5.68c5.6,0.11,11.2,0.08,16.8,0.03c4.97-0.04,7.03-2.11,7.13-6.98
		C50.73,15.19,50.71,13.92,50.71,12.61z M44.88,42.05c-6.2,3.63-12.4,3.52-18.61,0.01C31.61,47.59,39.2,48.09,44.88,42.05z
		 M44.8,30.91c-6.2,4.17-12.38,2.92-18.57,0.08C31.13,36.42,39.51,36.47,44.8,30.91z"/>
	<path d="M53.11,58.7c0-4.19-0.03-8.1,0.01-12.02c0.04-4.58,1.82-8.4,5.79-10.91c1.18-0.74,3.21-1.25,4.31-0.75
		c1.08,0.49,2.07,2.4,2.09,3.71c0.18,8.92,0.17,17.84,0.06,26.76c-0.04,3.64-1.98,5.48-5.75,5.5c-15.96,0.07-31.93,0.06-47.89,0
		c-3.85-0.01-5.74-1.75-5.79-5.41c-0.12-8.92-0.13-17.84,0.03-26.76C6,37.5,6.89,35.58,7.96,35.06c1.08-0.52,3.12-0.05,4.3,0.68
		c3.87,2.39,5.73,6.04,5.77,10.52c0.04,4.04,0.01,8.07,0.01,12.44C29.69,58.7,41.16,58.7,53.11,58.7z"/>
	<path d="M35.55,21.88c-2.67,0-5.34,0.05-8.01-0.01c-3.59-0.09-5.16-1.52-5.24-4.93c-0.09-3.67-0.02-7.35-0.02-11.02
		c0-3.14,1.51-4.92,4.83-4.93c5.71-0.03,11.41-0.04,17.12,0c3.13,0.02,4.65,1.68,4.67,4.69c0.02,3.79,0.02,7.58,0,11.38
		c-0.01,3.2-1.73,4.79-4.96,4.82C41.13,21.9,38.34,21.88,35.55,21.88z"/>
	<path style="fill:#FFFFFF;" d="M44.88,42.05c-5.68,6.04-13.27,5.53-18.61,0.01C32.48,45.57,38.68,45.68,44.88,42.05z"/>
	<path style="fill:#FFFFFF;" d="M44.8,30.91c-5.3,5.57-13.68,5.51-18.57,0.08C32.42,33.82,38.6,35.08,44.8,30.91z"/>
</g>
</svg>
