<?xml version="1.0" encoding="utf-8"?>
<!-- Generator: Adobe Illustrator 26.0.0, SVG Export Plug-In . SVG Version: 6.00 Build 0)  -->
<svg version="1.1" id="Layer_1" xmlns="http://www.w3.org/2000/svg" xmlns:xlink="http://www.w3.org/1999/xlink" x="0px" y="0px"
	 viewBox="0 0 72 72" style="enable-background:new 0 0 72 72;" xml:space="preserve">
<g>
	<path style="fill:#FFFFFF;" d="M47.73,17.47c0,1.05,0.02,2.07,0,3.09c-0.08,3.91-1.7,5.57-5.59,5.6
		c-4.39,0.04-8.78,0.07-13.17-0.02c-2.96-0.06-4.54-1.63-4.83-4.56c-0.14-1.38-0.16-2.76-0.23-4.16c-3.45,0.36-5.66,1.92-6.02,4.95
		c-0.44,3.67-0.27,7.42-0.28,11.13c0,0.46,0.46,1.05,0.87,1.35c4.07,2.95,5.19,7.08,4.98,11.84c-0.1,2.22-0.02,4.46-0.02,6.57
		c8.64,0,16.7,0,24.93,0c0-2.73,0.08-5.21-0.02-7.68c-0.16-4.18,1.17-7.65,4.45-10.36c0.57-0.47,1.07-1.39,1.09-2.12
		c0.11-3.24,0.18-6.5-0.03-9.73C53.66,19.89,51.45,17.83,47.73,17.47z M49.62,54.49c-9.37,0-18.36,0-27.49,0
		c0-3.51,0.02-6.75-0.01-10c-0.03-3.6-1.49-6.52-4.52-8.45c-0.92-0.58-2.53-0.97-3.37-0.55c-0.84,0.42-1.54,1.96-1.55,3.02
		c-0.13,7.16-0.12,14.33-0.03,21.49c0.04,2.94,1.52,4.33,4.54,4.35c12.51,0.05,25.02,0.05,37.53,0c2.96-0.01,4.48-1.49,4.51-4.42
		c0.08-7.16,0.09-14.33-0.05-21.49c-0.02-1.05-0.79-2.58-1.64-2.98c-0.86-0.4-2.46,0.01-3.38,0.6c-3.11,2.02-4.51,5.08-4.54,8.76
		C49.6,47.98,49.62,51.12,49.62,54.49z M35.85,24.91c2.19,0,4.38,0.02,6.57,0c2.54-0.03,3.88-1.3,3.89-3.88
		c0.01-3.05,0.01-6.09,0-9.14c-0.01-2.42-1.21-3.75-3.66-3.76c-4.47-0.03-8.94-0.02-13.42,0c-2.6,0.01-3.78,1.44-3.78,3.96
		c0,2.95-0.05,5.9,0.02,8.85c0.07,2.73,1.3,3.89,4.11,3.96C31.66,24.95,33.76,24.91,35.85,24.91z"/>
	<path d="M47.73,17.47c3.71,0.36,5.93,2.43,6.15,5.89c0.21,3.23,0.13,6.49,0.03,9.73c-0.02,0.73-0.52,1.65-1.09,2.12
		c-3.28,2.71-4.61,6.18-4.45,10.36c0.1,2.47,0.02,4.95,0.02,7.68c-8.24,0-16.29,0-24.93,0c0-2.12-0.08-4.35,0.02-6.57
		c0.21-4.75-0.91-8.89-4.98-11.84c-0.41-0.3-0.87-0.89-0.87-1.35c0-3.71-0.16-7.46,0.28-11.13c0.36-3.04,2.57-4.59,6.02-4.95
		c0.07,1.39,0.09,2.78,0.23,4.16c0.29,2.94,1.87,4.5,4.83,4.56c4.39,0.09,8.78,0.06,13.17,0.02c3.89-0.04,5.51-1.69,5.59-5.6
		C47.75,19.53,47.73,18.52,47.73,17.47z M43.17,41.11c-4.86,2.91-9.72,2.83-14.58,0.01C32.76,45.56,38.71,45.96,43.17,41.11z
		 M43.11,32.16c-4.86,3.35-9.7,2.34-14.55,0.06C32.39,36.59,38.95,36.63,43.11,32.16z"/>
	<path d="M49.62,54.49c0-3.37-0.02-6.51,0.01-9.65c0.03-3.68,1.43-6.74,4.54-8.76c0.92-0.6,2.51-1.01,3.38-0.6
		c0.85,0.4,1.62,1.93,1.64,2.98c0.14,7.16,0.13,14.33,0.05,21.49c-0.03,2.93-1.55,4.41-4.51,4.42c-12.51,0.05-25.02,0.05-37.53,0
		c-3.02-0.01-4.5-1.41-4.54-4.35c-0.09-7.16-0.1-14.33,0.03-21.49c0.02-1.06,0.72-2.6,1.55-3.02c0.84-0.42,2.45-0.04,3.37,0.55
		c3.03,1.92,4.49,4.85,4.52,8.45c0.03,3.24,0.01,6.48,0.01,10C31.26,54.49,40.25,54.49,49.62,54.49z"/>
	<path d="M35.85,24.91c-2.09,0-4.19,0.04-6.28-0.01c-2.81-0.07-4.04-1.22-4.11-3.96c-0.07-2.95-0.02-5.9-0.02-8.85
		c0-2.52,1.18-3.95,3.78-3.96c4.47-0.02,8.94-0.03,13.42,0c2.45,0.02,3.65,1.35,3.66,3.76c0.01,3.05,0.01,6.09,0,9.14
		c-0.01,2.57-1.35,3.85-3.89,3.88C40.23,24.93,38.04,24.91,35.85,24.91z"/>
	<path style="fill:#FFFFFF;" d="M43.17,41.11c-4.45,4.85-10.4,4.45-14.58,0.01C33.45,43.94,38.31,44.03,43.17,41.11z"/>
	<path style="fill:#FFFFFF;" d="M43.11,32.16c-4.15,4.47-10.72,4.43-14.55,0.06C33.4,34.5,38.24,35.51,43.11,32.16z"/>
</g>
</svg>
