<?xml version="1.0" encoding="utf-8"?>
<!-- Generator: Adobe Illustrator 17.0.0, SVG Export Plug-In . SVG Version: 6.00 Build 0)  -->
<!DOCTYPE svg PUBLIC "-//W3C//DTD SVG 1.1//EN" "http://www.w3.org/Graphics/SVG/1.1/DTD/svg11.dtd">
<svg version="1.1" id="Layer_1" xmlns="http://www.w3.org/2000/svg" xmlns:xlink="http://www.w3.org/1999/xlink" x="0px" y="0px"
	 width="612px" height="792px" viewBox="0 0 612 792" style="enable-background:new 0 0 612 792;" xml:space="preserve">
<g>
	<path style="fill:#FFFFFF;" d="M98.56,293.37c0-28.08,0-52.89,0-77.69c0-74.04,13.13-92.64,82.79-117.08
		c0.36-5.11,1.09-11.31,1.46-17.14c1.46-65.29,14.22-78.05,78.42-78.42c35.38,0,70.39,0,105.77,0c56.53,0,71.85,15.68,72.58,71.85
		c0,8.02,0.73,16.41,1.09,24.07c67.84,25.9,80.6,44.13,80.6,115.62c0,25.9,0,51.79,0,76.96c52.89,14.95,56.53,20.06,56.53,73.31
		c0,70.39-0.73,141.15,0.36,211.54c0.36,28.81-9.12,49.6-35.38,63.46c-6.93,3.65-13.49,14.59-13.86,22.61
		c-1.82,23.71,0,47.78-1.09,71.49c-1.09,33.19-19.7,51.79-52.89,51.79c-108.69,0.36-217.74,0.36-326.43,0
		c-34.28,0-52.89-19.7-54.71-54.34c-0.73-15.68-0.36-31,0-46.68c0.73-22.98,1.82-42.31-26.26-55.07
		c-12.4-5.47-22.25-30.27-22.61-46.68c-2.19-78.78-0.73-157.56-1.09-236.34C43.12,311.24,65.37,298.11,98.56,293.37z M439.58,120.12
		c0,11.31,0.36,22.61,0,33.55c-0.73,42.31-18.24,60.54-60.54,60.91c-47.78,0.36-95.19,0.73-142.97-0.36
		c-32.1-0.73-49.24-17.51-52.52-49.6c-1.46-14.95-1.82-29.91-2.55-45.23c-37.57,4.01-61.27,20.79-65.29,53.61
		c-4.74,39.76-2.92,80.6-2.92,120.72c0,5.11,5.11,11.31,9.48,14.59c44.13,32.1,56.17,76.96,53.98,128.38
		c-1.09,24.07-0.36,48.51-0.36,71.49c93.73,0,181.27,0,270.63,0c0-29.54,0.73-56.53-0.36-83.52
		c-1.82-45.59,12.77-83.16,48.14-112.34c6.2-5.11,11.67-14.95,12.04-22.98c1.09-35.01,1.82-70.39-0.36-105.77
		C503.77,146.38,479.7,124.13,439.58,120.12z M460.01,522.05c-101.76,0-199.14,0-298.35,0c0-38.3,0.36-73.31,0-108.32
		c-0.36-39.03-16.05-70.76-49.24-91.55c-9.85-6.2-27.35-10.58-36.47-5.84c-9.12,4.38-16.78,21.15-16.78,32.83
		c-1.46,77.69-1.09,155.37-0.36,233.42c0.36,31.73,16.41,47.05,49.24,47.05c135.68,0.36,271.72,0.73,407.4,0
		c32.1,0,48.51-16.05,48.87-47.78c0.73-77.69,1.09-155.37-0.36-233.42c-0.36-11.31-8.75-28.08-17.87-32.46
		c-9.48-4.38-26.62,0-36.47,6.57c-33.92,21.88-48.87,55.07-49.24,95.19C459.64,451.29,460.01,485.58,460.01,522.05z M513.99,644.6
		c-137.5,0-269.53,0-405.21,0c0,29.54,0,57.26,0,84.98c0,28.08,14.95,42.67,42.31,42.67c106.86,0.36,213.36,0.36,320.23,0
		c24.07,0,40.48-12.4,42.31-36.47C515.81,706.6,513.99,676.69,513.99,644.6z M310.47,201.09c23.71,0,47.41,0.36,71.12,0
		c27.72-0.36,41.94-14.22,42.31-41.94c0-33.19,0-66.02,0-99.21c0-26.26-13.13-40.85-39.76-40.85c-48.51-0.36-97.02-0.36-145.53,0
		c-28.08,0-41.21,15.68-41.21,43.04c0,32.1-0.73,64.19,0,95.92c0.73,29.54,14.22,42.31,44.5,43.04
		C265.24,201.45,287.86,201.09,310.47,201.09z"/>
	<path d="M439.58,120.12c40.48,4.01,64.19,26.26,66.74,63.83c2.19,35.01,1.46,70.39,0.36,105.77c-0.36,8.02-5.47,17.87-12.04,22.98
		c-35.38,29.54-49.97,67.11-48.14,112.34c1.09,26.62,0.36,53.61,0.36,83.52c-89.36,0-176.89,0-270.63,0
		c0-22.98-0.73-47.05,0.36-71.49c2.19-51.43-9.85-96.65-53.98-128.38c-4.38-3.28-9.48-9.48-9.48-14.59
		c0-40.48-1.82-80.97,2.92-120.72c4.01-32.83,28.08-49.97,65.29-53.61c0.73,14.95,1.09,30.27,2.55,45.23
		c3.28,31.73,20.42,48.87,52.52,49.6c47.78,1.09,95.19,0.73,142.97,0.36c42.31-0.36,59.81-18.24,60.54-60.91
		C439.58,142.73,439.58,131.43,439.58,120.12z M389.98,376.89c-52.89,31.73-105.41,30.64-158.29,0
		C276.91,425.03,341.47,429.41,389.98,376.89z M389.25,279.51c-52.89,36.47-105.41,25.53-157.93,0.73
		C272.9,327.65,344.39,328.38,389.25,279.51z"/>
	<path d="M460.01,522.05c0-36.47-0.36-70.76,0-104.68c0.36-40.12,15.68-73.31,49.24-95.19c9.85-6.57,27.35-10.94,36.47-6.57
		c9.12,4.38,17.51,20.79,17.87,32.46c1.46,77.69,1.46,155.37,0.36,233.42c-0.36,31.73-16.78,47.78-48.87,47.78
		c-135.68,0.73-271.72,0.36-407.4,0c-32.83,0-48.87-15.32-49.24-47.05c-1.09-77.69-1.09-155.37,0.36-233.42
		c0.36-11.67,7.66-28.08,16.78-32.83c9.12-4.74,26.62-0.36,36.47,5.84c32.83,20.79,48.87,52.52,49.24,91.55
		c0.36,35.01,0,70.39,0,108.32C260.87,522.05,358.25,522.05,460.01,522.05z"/>
	<path d="M513.99,644.6c0,31.73,1.82,61.64-0.36,91.18c-1.82,24.07-18.24,36.47-42.31,36.47c-106.86,0-213.36,0.36-320.23,0
		c-27.35,0-42.31-14.59-42.31-42.67c0-27.72,0-55.44,0-84.98C244.45,644.6,376.85,644.6,513.99,644.6z"/>
	<path d="M310.47,201.09c-22.61,0-45.59,0.36-68.2,0c-30.64-0.73-43.77-13.13-44.5-43.04c-0.73-32.1,0-64.19,0-95.92
		c0-27.35,12.77-43.04,41.21-43.04c48.51-0.36,97.02-0.36,145.53,0c26.62,0,39.76,14.59,39.76,40.85c0,33.19,0,66.02,0,99.21
		c0,28.08-14.59,41.58-42.31,41.94C358.25,201.09,334.18,201.09,310.47,201.09z"/>
	<path style="fill:#FFFFFF;" d="M389.98,376.89c-48.51,52.52-113.06,48.14-158.29,0C284.57,407.52,337.09,408.62,389.98,376.89z"/>
	<path style="fill:#FFFFFF;" d="M389.25,279.51c-45.23,48.51-116.35,48.14-157.93,0.73C284.21,305.04,336.73,315.98,389.25,279.51z"
		/>
</g>
</svg>
