<?xml version="1.0" encoding="utf-8"?>
<!-- Generator: Adobe Illustrator 26.0.0, SVG Export Plug-In . SVG Version: 6.00 Build 0)  -->
<svg version="1.1" id="Layer_1" xmlns="http://www.w3.org/2000/svg" xmlns:xlink="http://www.w3.org/1999/xlink" x="0px" y="0px"
	 viewBox="0 0 72 72" style="enable-background:new 0 0 72 72;" xml:space="preserve">
<path style="fill:#FFFFFF;" d="M30.18,27.18c0-0.77,0-1.45,0-2.13c0-2.03,0.36-2.54,2.27-3.21c0.01-0.14,0.03-0.31,0.04-0.47
	c0.04-1.79,0.39-2.14,2.15-2.15c0.97,0,1.93,0,2.9,0c1.55,0,1.97,0.43,1.99,1.97c0,0.22,0.02,0.45,0.03,0.66
	c1.86,0.71,2.21,1.21,2.21,3.17c0,0.71,0,1.42,0,2.11c1.45,0.41,1.55,0.55,1.55,2.01c0,1.93-0.02,3.87,0.01,5.8
	c0.01,0.79-0.25,1.36-0.97,1.74c-0.19,0.1-0.37,0.4-0.38,0.62c-0.05,0.65,0,1.31-0.03,1.96c-0.03,0.91-0.54,1.42-1.45,1.42
	c-2.98,0.01-5.97,0.01-8.95,0c-0.94,0-1.45-0.54-1.5-1.49c-0.02-0.43-0.01-0.85,0-1.28c0.02-0.63,0.05-1.16-0.72-1.51
	c-0.34-0.15-0.61-0.83-0.62-1.28c-0.06-2.16-0.02-4.32-0.03-6.48C28.66,27.67,29.27,27.31,30.18,27.18z M39.53,22.43
	c0,0.31,0.01,0.62,0,0.92c-0.02,1.16-0.5,1.66-1.66,1.67c-1.31,0.01-2.61,0.02-3.92-0.01c-0.88-0.02-1.35-0.48-1.44-1.36
	c-0.04-0.41-0.05-0.82-0.07-1.24c-1.03,0.11-1.68,0.57-1.79,1.47c-0.13,1.09-0.08,2.21-0.08,3.31c0,0.14,0.14,0.31,0.26,0.4
	c1.21,0.88,1.54,2.11,1.48,3.52c-0.03,0.66-0.01,1.33-0.01,1.96c2.57,0,4.97,0,7.42,0c0-0.81,0.02-1.55-0.01-2.29
	c-0.05-1.25,0.35-2.28,1.32-3.08c0.17-0.14,0.32-0.41,0.33-0.63c0.03-0.96,0.05-1.93-0.01-2.9C41.29,23.15,40.63,22.54,39.53,22.43z
	 M40.09,33.45c-2.79,0-5.46,0-8.18,0c0-1.05,0.01-2.01,0-2.97c-0.01-1.07-0.44-1.94-1.35-2.51c-0.27-0.17-0.75-0.29-1-0.16
	c-0.25,0.12-0.46,0.58-0.46,0.9c-0.04,2.13-0.03,4.26-0.01,6.4c0.01,0.87,0.45,1.29,1.35,1.29c3.72,0.01,7.45,0.02,11.17,0
	c0.88,0,1.33-0.44,1.34-1.31c0.02-2.13,0.03-4.26-0.01-6.4c-0.01-0.31-0.24-0.77-0.49-0.89c-0.26-0.12-0.73,0-1,0.18
	c-0.93,0.6-1.34,1.51-1.35,2.61C40.08,31.51,40.09,32.45,40.09,33.45z M41.57,36.81c-3.77,0-7.39,0-11.11,0c0,0.81,0,1.57,0,2.33
	c0,0.77,0.41,1.17,1.16,1.17c2.93,0.01,5.85,0.01,8.78,0c0.66,0,1.11-0.34,1.16-1C41.62,38.51,41.57,37.69,41.57,36.81z
	 M35.99,24.65c0.65,0,1.3,0.01,1.95,0c0.76-0.01,1.15-0.39,1.16-1.15c0-0.91,0-1.81,0-2.72c0-0.72-0.36-1.12-1.09-1.12
	c-1.33-0.01-2.66-0.01-3.99,0c-0.77,0-1.13,0.43-1.13,1.18c0,0.88-0.02,1.76,0,2.63c0.02,0.81,0.39,1.16,1.22,1.18
	C34.75,24.66,35.37,24.65,35.99,24.65z"/>
<path d="M39.53,22.43c1.11,0.11,1.76,0.72,1.83,1.75c0.06,0.96,0.04,1.93,0.01,2.9c-0.01,0.22-0.15,0.49-0.33,0.63
	c-0.97,0.81-1.37,1.84-1.32,3.08c0.03,0.73,0.01,1.47,0.01,2.29c-2.45,0-4.85,0-7.42,0c0-0.63-0.02-1.29,0.01-1.96
	c0.06-1.41-0.27-2.65-1.48-3.52c-0.12-0.09-0.26-0.26-0.26-0.4c0-1.11-0.05-2.22,0.08-3.31c0.11-0.9,0.77-1.37,1.79-1.47
	c0.02,0.41,0.03,0.83,0.07,1.24c0.09,0.87,0.56,1.34,1.44,1.36c1.31,0.03,2.61,0.02,3.92,0.01c1.16-0.01,1.64-0.5,1.66-1.67
	C39.53,23.05,39.53,22.74,39.53,22.43z M38.17,29.47c-1.45,0.87-2.89,0.84-4.34,0C35.07,30.79,36.84,30.91,38.17,29.47z M38.15,26.8
	c-1.45,1-2.89,0.7-4.33,0.02C34.96,28.12,36.92,28.14,38.15,26.8z"/>
<path d="M40.09,33.45c0-1-0.01-1.94,0-2.87c0.01-1.1,0.43-2.01,1.35-2.61c0.27-0.18,0.75-0.3,1-0.18c0.25,0.12,0.48,0.57,0.49,0.89
	c0.04,2.13,0.04,4.26,0.01,6.4c-0.01,0.87-0.46,1.31-1.34,1.31c-3.72,0.02-7.45,0.01-11.17,0c-0.9,0-1.34-0.42-1.35-1.29
	c-0.03-2.13-0.03-4.26,0.01-6.4c0.01-0.32,0.21-0.77,0.46-0.9c0.25-0.13,0.73-0.01,1,0.16c0.9,0.57,1.34,1.44,1.35,2.51
	c0.01,0.96,0,1.93,0,2.97C34.63,33.45,37.3,33.45,40.09,33.45z"/>
<path d="M41.57,36.81c0,0.87,0.05,1.69-0.01,2.5c-0.05,0.66-0.5,1-1.16,1c-2.93,0-5.85,0.01-8.78,0c-0.75,0-1.16-0.4-1.16-1.17
	c0-0.76,0-1.52,0-2.33C34.18,36.81,37.81,36.81,41.57,36.81z"/>
<path d="M35.99,24.65c-0.62,0-1.25,0.01-1.87,0c-0.84-0.02-1.2-0.36-1.22-1.18c-0.02-0.88,0-1.76,0-2.63c0-0.75,0.35-1.18,1.13-1.18
	c1.33-0.01,2.66-0.01,3.99,0c0.73,0,1.09,0.4,1.09,1.12c0,0.91,0,1.81,0,2.72c0,0.77-0.4,1.14-1.16,1.15
	C37.3,24.65,36.64,24.65,35.99,24.65z"/>
<path style="fill:#FFFFFF;" d="M38.17,29.47c-1.33,1.44-3.1,1.32-4.34,0C35.28,30.31,36.72,30.34,38.17,29.47z"/>
<path style="fill:#FFFFFF;" d="M38.15,26.8c-1.24,1.33-3.19,1.32-4.33,0.02C35.27,27.5,36.71,27.8,38.15,26.8z"/>
</svg>
