<?xml version="1.0" encoding="utf-8"?>
<!-- Generator: Adobe Illustrator 17.0.0, SVG Export Plug-In . SVG Version: 6.00 Build 0)  -->
<!DOCTYPE svg PUBLIC "-//W3C//DTD SVG 1.1//EN" "http://www.w3.org/Graphics/SVG/1.1/DTD/svg11.dtd">
<svg version="1.1" id="Layer_1" xmlns="http://www.w3.org/2000/svg" xmlns:xlink="http://www.w3.org/1999/xlink" x="0px" y="0px"
	 width="612px" height="792px" viewBox="0 0 612 792" style="enable-background:new 0 0 612 792;" xml:space="preserve">
<g>
	<path style="fill:#FFFFFF;" d="M69.76,293.37c0-28.08,0-52.89,0-77.69c0-74.04,14.71-92.64,92.73-117.08
		c0.4-5.11,1.22-11.31,1.64-17.14c1.64-65.29,15.93-78.05,87.83-78.42c39.63,0,78.84,0,118.46,0c63.31,0,80.47,15.68,81.29,71.85
		c0,8.02,0.82,16.41,1.22,24.07c75.98,25.9,90.27,44.13,90.27,115.62c0,25.9,0,51.79,0,76.96c59.24,14.95,63.31,20.06,63.31,73.31
		c0,70.39-0.82,141.15,0.4,211.54c0.4,28.81-10.21,49.6-39.63,63.46c-7.76,3.65-15.11,14.59-15.52,22.61
		c-2.04,23.71,0,47.78-1.22,71.49c-1.22,33.19-22.06,51.79-59.24,51.79c-121.73,0.36-243.87,0.36-365.6,0
		c-38.39,0-59.24-19.7-61.28-54.34c-0.82-15.68-0.4-31,0-46.68c0.82-22.98,2.04-42.31-29.41-55.07
		c-13.89-5.47-24.92-30.27-25.32-46.68c-2.45-78.78-0.82-157.56-1.22-236.34C7.67,311.24,32.59,298.11,69.76,293.37z M451.71,120.12
		c0,11.31,0.4,22.61,0,33.55c-0.82,42.31-20.43,60.54-67.81,60.91c-53.51,0.36-106.61,0.73-160.13-0.36
		c-35.95-0.73-55.15-17.51-58.82-49.6c-1.64-14.95-2.04-29.91-2.86-45.23c-42.08,4.01-68.62,20.79-73.13,53.61
		c-5.31,39.76-3.27,80.6-3.27,120.72c0,5.11,5.72,11.31,10.62,14.59c49.43,32.1,62.91,76.96,60.46,128.38
		c-1.22,24.07-0.4,48.51-0.4,71.49c104.98,0,203.02,0,303.11,0c0-29.54,0.82-56.53-0.4-83.52c-2.04-45.59,14.3-83.16,53.92-112.34
		c6.94-5.11,13.07-14.95,13.48-22.98c1.22-35.01,2.04-70.39-0.4-105.77C523.6,146.38,496.64,124.13,451.71,120.12z M474.59,522.05
		c-113.97,0-223.04,0-334.15,0c0-38.3,0.4-73.31,0-108.32c-0.4-39.03-17.98-70.76-55.15-91.55c-11.03-6.2-30.63-10.58-40.85-5.84
		c-10.21,4.38-18.79,21.15-18.79,32.83c-1.64,77.69-1.22,155.37-0.4,233.42c0.4,31.73,18.38,47.05,55.15,47.05
		c151.96,0.36,304.33,0.73,456.29,0c35.95,0,54.33-16.05,54.73-47.78c0.82-77.69,1.22-155.37-0.4-233.42
		c-0.4-11.31-9.8-28.08-20.01-32.46c-10.62-4.38-29.81,0-40.85,6.57c-37.99,21.88-54.73,55.07-55.15,95.19
		C474.18,451.29,474.59,485.58,474.59,522.05z M535.05,644.6c-154,0-301.88,0-453.84,0c0,29.54,0,57.26,0,84.98
		c0,28.08,16.74,42.67,47.39,42.67c119.68,0.36,238.97,0.36,358.66,0c26.96,0,45.34-12.4,47.39-36.47
		C537.09,706.6,535.05,676.69,535.05,644.6z M307.1,201.09c26.56,0,53.1,0.36,79.66,0c31.05-0.36,46.97-14.22,47.39-41.94
		c0-33.19,0-66.02,0-99.21c0-26.26-14.71-40.85-44.53-40.85c-54.33-0.36-108.66-0.36-163,0c-31.45,0-46.16,15.68-46.16,43.04
		c0,32.1-0.82,64.19,0,95.92c0.82,29.54,15.93,42.31,49.84,43.04C256.45,201.45,281.78,201.09,307.1,201.09z"/>
	<path style="fill:#FFC107;" d="M451.71,120.12c45.34,4.01,71.89,26.26,74.75,63.83c2.45,35.01,1.64,70.39,0.4,105.77
		c-0.4,8.02-6.13,17.87-13.48,22.98c-39.63,29.54-55.97,67.11-53.92,112.34c1.22,26.62,0.4,53.61,0.4,83.52
		c-100.08,0-198.12,0-303.11,0c0-22.98-0.82-47.05,0.4-71.49c2.45-51.43-11.03-96.65-60.46-128.38
		c-4.91-3.28-10.62-9.48-10.62-14.59c0-40.48-2.04-80.97,3.27-120.72c4.49-32.83,31.45-49.97,73.13-53.61
		c0.82,14.95,1.22,30.27,2.86,45.23c3.67,31.73,22.87,48.87,58.82,49.6c53.51,1.09,106.61,0.73,160.13,0.36
		c47.39-0.36,66.99-18.24,67.81-60.91C451.71,142.73,451.71,131.43,451.71,120.12z M396.16,376.89
		c-59.24,31.73-118.06,30.64-177.29,0C269.52,425.03,341.82,429.41,396.16,376.89z M395.34,279.51
		c-59.24,36.47-118.06,25.53-176.88,0.73C265.03,327.65,345.1,328.38,395.34,279.51z"/>
	<path style="fill:#FFC107;" d="M472.67,522.05c0-36.47-0.4-70.76,0-104.68c0.4-40.12,17.56-73.31,55.15-95.19
		c11.03-6.57,30.63-10.94,40.85-6.57c10.21,4.38,19.61,20.79,20.01,32.46c1.64,77.69,1.64,155.37,0.4,233.42
		c-0.4,31.73-18.79,47.78-54.73,47.78c-151.96,0.73-304.33,0.36-456.29,0c-36.77,0-54.73-15.32-55.15-47.05
		c-1.22-77.69-1.22-155.37,0.4-233.42c0.4-11.67,8.58-28.08,18.79-32.83c10.21-4.74,29.81-0.36,40.85,5.84
		c36.77,20.79,54.73,52.52,55.15,91.55c0.4,35.01,0,70.39,0,108.32C249.63,522.05,358.7,522.05,472.67,522.05z"/>
	<path style="fill:#FFC107;" d="M535.05,644.6c0,31.73,2.04,61.64-0.4,91.18c-2.04,24.07-20.43,36.47-47.39,36.47
		c-119.68,0-238.97,0.36-358.66,0c-30.63,0-47.39-14.59-47.39-42.67c0-27.72,0-55.44,0-84.98
		C233.16,644.6,381.45,644.6,535.05,644.6z"/>
	<path style="fill:#FFC107;" d="M305.18,201.09c-25.32,0-51.06,0.36-76.38,0c-34.32-0.73-49.02-13.13-49.84-43.04
		c-0.82-32.1,0-64.19,0-95.92c0-27.35,14.3-43.04,46.16-43.04c54.33-0.36,108.66-0.36,163,0c29.81,0,44.53,14.59,44.53,40.85
		c0,33.19,0,66.02,0,99.21c0,28.08-16.34,41.58-47.39,41.94C358.7,201.09,331.74,201.09,305.18,201.09z"/>
	<path style="fill:#FFFFFF;" d="M396.16,376.89c-54.33,52.52-126.63,48.14-177.29,0C278.1,407.52,336.92,408.62,396.16,376.89z"/>
	<path style="fill:#FFFFFF;" d="M395.34,279.51c-50.66,48.51-130.31,48.14-176.88,0.73C277.69,305.04,336.52,315.98,395.34,279.51z"
		/>
</g>
</svg>
